<?xml version="1.0" standalone="no"?><svg xmlns="http://www.w3.org/2000/svg" viewBox="0 0 1440 320"><path fill="#fff" fill-opacity="1" d="M0,224L0,64L60,64L60,224L120,224L120,160L180,160L180,224L240,224L240,96L300,96L300,160L360,160L360,192L420,192L420,256L480,256L480,192L540,192L540,224L600,224L600,160L660,160L660,288L720,288L720,160L780,160L780,192L840,192L840,128L900,128L900,160L960,160L960,64L1020,64L1020,256L1080,256L1080,192L1140,192L1140,32L1200,32L1200,192L1260,192L1260,192L1320,192L1320,224L1380,224L1380,128L1440,128L1440,0L1380,0L1380,0L1320,0L1320,0L1260,0L1260,0L1200,0L1200,0L1140,0L1140,0L1080,0L1080,0L1020,0L1020,0L960,0L960,0L900,0L900,0L840,0L840,0L780,0L780,0L720,0L720,0L660,0L660,0L600,0L600,0L540,0L540,0L480,0L480,0L420,0L420,0L360,0L360,0L300,0L300,0L240,0L240,0L180,0L180,0L120,0L120,0L60,0L60,0L0,0L0,0Z"></path></svg>